# Aspose.3D Wavefront OBJ Exporter
# Copyright 2004-2022 Aspose Pty Ltd.
# File created: 04/05/2022 13:50:58


#
# object obj_34262603
#

v 5.71099996566772464 72.1320037841796875 0
v 5.27799987792968752 72.39199829101562496 0
v 5.27799987792968752 72.39199829101562496 4.30000019073486328
v 5.71099996566772464 72.1320037841796875 4.30000019073486328
v 4.82100009918212896 72.60800170898437504 0
v 4.3449997901916504 72.77799987792968752 0
v 6.11700010299682618 71.83100128173828128 0
v 6.49200010299682616 71.49199676513671872 0
v 6.83099985122680672 71.11699676513671876 0
v 7.13199996948242188 70.71099853515625 0
v 7.39200019836425784 70.27799987792968752 0
v 7.77799987792968752 69.345001220703125 0
v 7.77799987792968752 69.345001220703125 4.30000019073486328
v 7.90100002288818352 68.85500335693359376 4.30000019073486328
v 7.90100002288818352 68.85500335693359376 0
v 4.82100009918212896 72.60800170898437504 4.30000019073486328
v 7.60799980163574216 69.82099914550781248 0
v 4.3449997901916504 72.77799987792968752 4.30000019073486328
v 3.8550000190734864 72.9010009765625 0
v 3.8550000190734864 72.9010009765625 4.30000019073486328
v 3.35500001907348632 72.97499847412109376 0
v 3.35500001907348632 72.97499847412109376 4.30000019073486328
v 7.97499990463256832 68.35500335693359376 0
v 4.3449997901916504 62.9220008850097656 0
v 7.97499990463256832 67.345001220703125 0
v 8 67.84999847412109376 0
v 7.90100002288818352 66.84500122070312496 0
v 7.77799987792968752 66.35500335693359376 0
v 7.60799980163574216 65.87899780273437504 0
v 6.11700010299682618 63.86899948120117184 0
v 2.84999990463256832 73 0
v 2.84999990463256832 73 4.30000019073486328
v -0.01099999994039535 72.1320037841796875 0
v -0.4169999957084656 71.83100128173828128 0
v -0.4169999957084656 71.83100128173828128 4.30000019073486328
v -0.01099999994039535 72.1320037841796875 4.30000019073486328
v 2.34500002861022948 62.72499847412109376 0
v 2.34500002861022948 62.72499847412109376 4.30000019073486328
v 1.84500002861022944 62.79899978637695312 4.30000019073486328
v 1.84500002861022944 62.79899978637695312 0
v -0.7919999957084656 71.49199676513671872 0
v -0.7919999957084656 71.49199676513671872 4.30000019073486328
v 7.77799987792968752 66.35500335693359376 4.30000019073486328
v 7.60799980163574216 65.87899780273437504 4.30000019073486328
v 2.84999990463256832 62.70000076293945312 0
v 2.84999990463256832 62.70000076293945312 4.30000019073486328
v -1.13100004196166992 71.11699676513671876 0
v -1.13100004196166992 71.11699676513671876 4.30000019073486328
v 7.90100002288818352 66.84500122070312496 4.30000019073486328
v 2.34500002861022948 72.97499847412109376 0
v 2.34500002861022948 72.97499847412109376 4.30000019073486328
v -1.69200003147125248 65.4219970703125 0
v -1.4320000410079956 64.98899841308593744 0
v -1.4320000410079956 64.98899841308593744 4.30000019073486328
v -1.69200003147125248 65.4219970703125 4.30000019073486328
v 0.421999990940094 72.39199829101562496 0
v 0.87900000810623168 72.60800170898437504 0
v 1.35500001907348632 72.77799987792968752 0
v 1.84500002861022944 72.9010009765625 0
v -1.4320000410079956 70.71099853515625 0
v -1.4320000410079956 70.71099853515625 4.30000019073486328
v 1.84500002861022944 72.9010009765625 4.30000019073486328
v -1.69200003147125248 70.27799987792968752 0
v -1.69200003147125248 70.27799987792968752 4.30000019073486328
v 1.35500001907348632 72.77799987792968752 4.30000019073486328
v -2.29999995231628416 67.84999847412109376 4.30000019073486328
v -2.29999995231628416 67.84999847412109376 0
v -2.27500009536743164 67.345001220703125 0
v -2.27500009536743164 67.345001220703125 4.30000019073486328
v -1.90799999237060544 69.82099914550781248 0
v -1.90799999237060544 69.82099914550781248 4.30000019073486328
v 0.87900000810623168 72.60800170898437504 4.30000019073486328
v 7.97499990463256832 67.345001220703125 4.30000019073486328
v -2.20099997520446776 66.84500122070312496 0
v -2.20099997520446776 66.84500122070312496 4.30000019073486328
v 0.421999990940094 72.39199829101562496 4.30000019073486328
v -2.07800006866455078 69.345001220703125 0
v -2.07800006866455078 69.345001220703125 4.30000019073486328
v 8 67.84999847412109376 4.30000019073486328
v -2.07800006866455078 66.35500335693359376 0
v -1.90799999237060544 65.87899780273437504 0
v -2.27500009536743164 68.35500335693359376 0
v -2.20099997520446776 68.85500335693359376 0
v -2.20099997520446776 68.85500335693359376 4.30000019073486328
v -2.07800006866455078 66.35500335693359376 4.30000019073486328
v 7.97499990463256832 68.35500335693359376 4.30000019073486328
v -2.27500009536743164 68.35500335693359376 4.30000019073486328
v -1.90799999237060544 65.87899780273437504 4.30000019073486328
v 7.39200019836425784 65.4219970703125 0
v 7.13199996948242188 64.98899841308593744 0
v 6.83099985122680672 64.58300018310546872 0
v 6.49200010299682616 64.20800018310546876 0
v 5.71099996566772464 63.56800079345703128 0
v 5.27799987792968752 63.30799865722656248 0
v 4.82100009918212896 63.09199905395507812 0
v 3.8550000190734864 62.79899978637695312 0
v 3.35500001907348632 62.72499847412109376 0
v 6.83099985122680672 64.58300018310546872 4.30000019073486328
v 6.49200010299682616 64.20800018310546876 4.30000019073486328
v 4.3449997901916504 62.9220008850097656 4.30000019073486328
v 7.13199996948242188 64.98899841308593744 4.30000019073486328
v 4.82100009918212896 63.09199905395507812 4.30000019073486328
v 7.39200019836425784 65.4219970703125 4.30000019073486328
v 5.27799987792968752 63.30799865722656248 4.30000019073486328
v 1.35500001907348632 62.9220008850097656 0
v 0.87900000810623168 63.09199905395507812 0
v 0.421999990940094 63.30799865722656248 0
v -0.01099999994039535 63.56800079345703128 0
v 5.71099996566772464 63.56800079345703128 4.30000019073486328
v 3.35500001907348632 62.72499847412109376 4.30000019073486328
v 6.11700010299682618 63.86899948120117184 4.30000019073486328
v -1.13100004196166992 64.58300018310546872 0
v -0.7919999957084656 64.20800018310546876 0
v -0.4169999957084656 63.86899948120117184 0
v 3.8550000190734864 62.79899978637695312 4.30000019073486328
v 0.421999990940094 63.30799865722656248 4.30000019073486328
v 0.87900000810623168 63.09199905395507812 4.30000019073486328
v 1.35500001907348632 62.9220008850097656 4.30000019073486328
v -0.01099999994039535 63.56800079345703128 4.30000019073486328
v 7.60799980163574216 69.82099914550781248 4.30000019073486328
v 7.39200019836425784 70.27799987792968752 4.30000019073486328
v 7.13199996948242188 70.71099853515625 4.30000019073486328
v 6.83099985122680672 71.11699676513671876 4.30000019073486328
v 6.49200010299682616 71.49199676513671872 4.30000019073486328
v 6.11700010299682618 71.83100128173828128 4.30000019073486328
v -0.4169999957084656 63.86899948120117184 4.30000019073486328
v -0.7919999957084656 64.20800018310546876 4.30000019073486328
v -1.13100004196166992 64.58300018310546872 4.30000019073486328
# 128 vertices

vn 0.5147868990898132 0.85731816291809088 0
vn 0 0 -1
vn 0.96990919113159184 0.24346700310707092 0
vn 0.42732080817222592 0.90410006046295168 0
vn 0.94174188375473024 0.33633640408515932 0
vn 0.33633640408515932 0.94174188375473024 0
vn 0.24346700310707092 0.96990919113159184 0
vn 0.14640524983406066 0.98922467231750496 0
vn 0.04944439977407455 0.99877685308456416 0
vn -0.5955587029457092 0.8033117651939392 0
vn -0.14640524983406066 -0.98922467231750496 0
vn -0.67060250043869016 0.74181687831878656 0
vn 0.94174188375473024 -0.33633640408515932 0
vn -0.04944439977407455 -0.99877685308456416 0
vn -0.74181687831878656 0.67060250043869016 0
vn 0.96990919113159184 -0.24346700310707092 0
vn -0.04944439977407455 0.99877685308456416 0
vn -0.85731816291809088 -0.5147868990898132 0
vn -0.8033117651939392 0.5955587029457092 0
vn -0.14640524983406066 0.98922467231750496 0
vn -0.85731816291809088 0.5147868990898132 0
vn -0.24346700310707092 0.96990919113159184 0
vn -0.99877685308456416 -0.04944439977407455 0
vn -0.90410006046295168 0.42732080817222592 0
vn -0.33633640408515932 0.94174188375473024 0
vn 0.98922467231750496 -0.14640524983406066 0
vn -0.98922467231750496 -0.14640524983406066 0
vn -0.42732080817222592 0.90410006046295168 0
vn -0.94174188375473024 0.33633640408515932 0
vn 0.99877685308456416 -0.04944439977407455 0
vn -0.96990919113159184 0.24346700310707092 0
vn -0.96990919113159184 -0.24346700310707092 0
vn 0.99877685308456416 0.04944439977407455 0
vn -0.5147868990898132 0.85731816291809088 0
vn 0.98922467231750496 0.14640524983406066 0
vn -0.98922467231750496 0.14640524983406066 0
vn -0.94174188375473024 -0.33633640408515932 0
vn -0.99877685308456416 0.04944439977407455 0
vn -0.90410006046295168 -0.42732080817222592 0
vn 0.74181687831878656 -0.67060250043869016 0
vn 0.24346700310707092 -0.96990919113159184 0
vn 0.8033117651939392 -0.5955587029457092 0
vn 0 0 1
vn 0.33633640408515932 -0.94174188375473024 0
vn 0.85731816291809088 -0.5147868990898132 0
vn 0.42732080817222592 -0.90410006046295168 0
vn 0.90410006046295168 -0.42732080817222592 0
vn 0.5147868990898132 -0.85731816291809088 0
vn 0.04944439977407455 -0.99877685308456416 0
vn 0.5955587029457092 -0.8033117651939392 0
vn 0.14640524983406066 -0.98922467231750496 0
vn 0.67060250043869016 -0.74181687831878656 0
vn -0.5147868990898132 -0.85731816291809088 0
vn -0.42732080817222592 -0.90410006046295168 0
vn -0.33633640408515932 -0.94174188375473024 0
vn 0.90410006046295168 0.42732080817222592 0
vn -0.8033117651939392 -0.5955587029457092 0
vn -0.24346700310707092 -0.96990919113159184 0
vn -0.74181687831878656 -0.67060250043869016 0
vn 0.85731816291809088 0.5147868990898132 0
vn -0.67060250043869016 -0.74181687831878656 0
vn -0.5955587029457092 -0.8033117651939392 0
vn 0.8033117651939392 0.5955587029457092 0
vn 0.74181687831878656 0.67060250043869016 0
vn 0.67060250043869016 0.74181687831878656 0
vn 0.5955587029457092 0.8033117651939392 0
# 66 vertex normals

g obj_34262603
s 1
f 1//1 2//1 3//1
f 1//1 3//1 4//1
f 2//2 1//2 5//2
f 6//2 5//2 1//2
f 6//2 1//2 7//2
f 6//2 7//2 8//2
f 6//2 8//2 9//2
f 6//2 9//2 10//2
f 6//2 10//2 11//2
f 12//3 13//3 14//3
f 12//3 14//3 15//3
f 2//4 5//4 16//4
f 2//4 16//4 3//4
f 13//5 12//5 17//5
f 5//6 6//6 18//6
f 5//6 18//6 16//6
f 6//7 19//7 20//7
f 19//8 21//8 22//8
f 19//8 22//8 20//8
f 6//7 20//7 18//7
f 23//2 24//2 15//2
f 12//2 15//2 24//2
f 25//2 24//2 26//2
f 27//2 24//2 25//2
f 28//2 24//2 27//2
f 29//2 30//2 28//2
f 21//9 31//9 32//9
f 21//9 32//9 22//9
f 33//10 34//10 35//10
f 33//10 35//10 36//10
f 37//11 38//11 39//11
f 37//11 39//11 40//11
f 34//12 41//12 42//12
f 34//12 42//12 35//12
f 29//13 28//13 43//13
f 29//13 43//13 44//13
f 45//14 46//14 38//14
f 45//14 38//14 37//14
f 41//15 47//15 48//15
f 41//15 48//15 42//15
f 28//16 27//16 49//16
f 28//16 49//16 43//16
f 31//17 50//17 51//17
f 31//17 51//17 32//17
f 52//18 53//18 54//18
f 52//18 54//18 55//18
f 17//2 33//2 56//2
f 17//2 56//2 57//2
f 17//2 57//2 58//2
f 17//2 58//2 59//2
f 17//2 59//2 50//2
f 17//2 50//2 31//2
f 17//2 31//2 21//2
f 17//2 21//2 19//2
f 6//2 11//2 17//2
f 19//2 6//2 17//2
f 47//19 60//19 61//19
f 47//19 61//19 48//19
f 50//20 59//20 62//20
f 50//20 62//20 51//20
f 60//21 63//21 64//21
f 60//21 64//21 61//21
f 59//22 58//22 65//22
f 59//22 65//22 62//22
f 66//23 67//23 68//23
f 66//23 68//23 69//23
f 63//24 70//24 71//24
f 63//24 71//24 64//24
f 58//25 57//25 72//25
f 58//25 72//25 65//25
f 27//26 25//26 73//26
f 27//26 73//26 49//26
f 68//27 74//27 75//27
f 68//27 75//27 69//27
f 57//28 56//28 76//28
f 57//28 76//28 72//28
f 70//29 77//29 78//29
f 70//29 78//29 71//29
f 25//30 26//30 79//30
f 25//30 79//30 73//30
f 80//2 17//2 81//2
f 74//2 17//2 80//2
f 68//2 17//2 74//2
f 67//2 17//2 68//2
f 82//2 17//2 67//2
f 83//2 17//2 82//2
f 77//2 17//2 83//2
f 70//2 17//2 77//2
f 63//2 17//2 70//2
f 60//2 17//2 63//2
f 47//2 17//2 60//2
f 41//2 17//2 47//2
f 34//2 17//2 41//2
f 33//2 17//2 34//2
f 52//2 81//2 17//2
f 77//31 83//31 84//31
f 77//31 84//31 78//31
f 74//32 80//32 85//32
f 74//32 85//32 75//32
f 23//33 86//33 79//33
f 23//33 79//33 26//33
f 56//34 33//34 36//34
f 56//34 36//34 76//34
f 15//35 14//35 86//35
f 15//35 86//35 23//35
f 83//36 82//36 87//36
f 83//36 87//36 84//36
f 80//37 81//37 88//37
f 80//37 88//37 85//37
f 82//38 67//38 66//38
f 82//38 66//38 87//38
f 55//39 88//39 52//39
f 81//39 52//39 88//39
f 29//2 89//2 90//2
f 29//2 90//2 91//2
f 29//2 91//2 92//2
f 29//2 92//2 30//2
f 93//2 28//2 30//2
f 94//2 28//2 93//2
f 95//2 28//2 94//2
f 24//2 28//2 95//2
f 96//2 97//2 12//2
f 23//2 26//2 24//2
f 91//40 98//40 99//40
f 91//40 99//40 92//40
f 96//41 24//41 100//41
f 90//42 101//42 98//42
f 90//42 98//42 91//42
f 35//43 48//43 36//43
f 42//43 48//43 35//43
f 36//43 48//43 61//43
f 36//43 61//43 64//43
f 36//43 64//43 71//43
f 36//43 71//43 78//43
f 36//43 78//43 84//43
f 36//43 84//43 87//43
f 36//43 87//43 66//43
f 36//43 66//43 69//43
f 36//43 69//43 75//43
f 36//43 75//43 85//43
f 88//43 55//43 36//43
f 55//43 54//43 36//43
f 85//43 88//43 36//43
f 24//44 95//44 102//44
f 24//44 102//44 100//44
f 89//45 103//45 101//45
f 89//45 101//45 90//45
f 95//46 94//46 104//46
f 95//46 104//46 102//46
f 17//2 12//2 105//2
f 40//2 105//2 12//2
f 106//2 17//2 105//2
f 107//2 17//2 106//2
f 108//2 17//2 107//2
f 37//2 40//2 12//2
f 24//2 96//2 12//2
f 97//2 45//2 12//2
f 45//2 37//2 12//2
f 89//47 29//47 103//47
f 44//47 103//47 29//47
f 94//48 93//48 109//48
f 94//48 109//48 104//48
f 97//49 110//49 46//49
f 97//49 46//49 45//49
f 98//43 3//43 99//43
f 101//43 3//43 98//43
f 44//43 43//43 3//43
f 102//43 104//43 3//43
f 99//43 3//43 111//43
f 109//43 3//43 104//43
f 111//43 3//43 109//43
f 93//50 30//50 111//50
f 93//50 111//50 109//50
f 112//2 17//2 113//2
f 114//2 113//2 17//2
f 53//2 17//2 112//2
f 52//2 17//2 53//2
f 108//2 114//2 17//2
f 96//51 115//51 110//51
f 96//51 110//51 97//51
f 92//52 99//52 111//52
f 92//52 111//52 30//52
f 110//43 115//43 3//43
f 115//43 100//43 3//43
f 100//43 102//43 3//43
f 46//43 110//43 3//43
f 116//43 117//43 3//43
f 117//43 118//43 3//43
f 118//43 39//43 3//43
f 39//43 38//43 3//43
f 38//43 46//43 3//43
f 100//41 115//41 96//41
f 18//43 20//43 119//43
f 22//43 119//43 20//43
f 13//43 120//43 3//43
f 3//43 120//43 121//43
f 3//43 121//43 122//43
f 3//43 122//43 123//43
f 3//43 123//43 124//43
f 3//43 124//43 125//43
f 3//43 125//43 4//43
f 107//53 116//53 108//53
f 106//54 117//54 116//54
f 106//54 116//54 107//54
f 126//43 36//43 127//43
f 119//43 36//43 126//43
f 128//43 127//43 36//43
f 54//43 128//43 36//43
f 13//43 3//43 14//43
f 86//43 14//43 3//43
f 79//43 86//43 3//43
f 103//43 44//43 3//43
f 101//43 103//43 3//43
f 43//43 49//43 3//43
f 73//43 3//43 49//43
f 79//43 3//43 73//43
f 105//55 118//55 117//55
f 105//55 117//55 106//55
f 17//5 120//5 13//5
f 17//56 11//56 121//56
f 17//56 121//56 120//56
f 53//57 112//57 128//57
f 53//57 128//57 54//57
f 40//58 39//58 118//58
f 40//58 118//58 105//58
f 65//43 119//43 62//43
f 51//43 62//43 119//43
f 72//43 119//43 65//43
f 76//43 119//43 72//43
f 36//43 119//43 76//43
f 32//43 51//43 119//43
f 3//43 16//43 119//43
f 116//43 3//43 119//43
f 16//43 18//43 119//43
f 32//43 119//43 22//43
f 112//59 113//59 127//59
f 112//59 127//59 128//59
f 11//60 10//60 122//60
f 11//60 122//60 121//60
f 114//61 126//61 127//61
f 114//61 127//61 113//61
f 108//62 119//62 126//62
f 108//62 126//62 114//62
f 10//63 9//63 123//63
f 10//63 123//63 122//63
f 116//53 119//53 108//53
f 9//64 8//64 124//64
f 9//64 124//64 123//64
f 8//65 7//65 125//65
f 8//65 125//65 124//65
f 7//66 1//66 4//66
f 7//66 4//66 125//66
#252 polygons

